<svg class="svg-icon" style="width: 1em;height: 1em;vertical-align: middle;fill: currentColor;overflow: hidden;" viewBox="0 0 1024 1024" version="1.1" xmlns="http://www.w3.org/2000/svg"><path d="M820.452798 226.739141v-0.028899l-0.065024-0.007225c-327.750515-183.0935-624.88189 6.170067-624.88189 6.170067l2.514267-0.021674-0.108374 0.021674v525.004826s4.667288 29.325883 57.510231 38.819406l2.095222 1.076511v121.465075h121.616798v-117.968222c39.541896 0.202297 84.769791 0.057799 130.04826-0.288996 48.023932 0.36847 96.076765 0.505743 137.273163 0.252871v118.004347h121.616798v-123.625321l-0.079474-0.404595h0.079474v0.404595c47.886659-10.418311 52.380549-37.73567 52.380549-37.735671v-529.802161l2.413118-0.021675c-0.809189-0.447944-1.611153-0.859763-2.413118-1.314933zM320.135467 751.866791h-62.618237v-111.986002h62.618237v111.986002z m-62.618237-228.791014V307.535236h503.337341v215.540541H257.51723z m510.555019 228.791014h-62.618237v-111.986002h62.618237v111.986002z" fill="#00A29A" /></svg>